<?xml version="1.0" encoding="UTF-8" standalone="no"?>
<!DOCTYPE svg PUBLIC "-//W3C//DTD SVG 1.1//EN"
 "http://www.w3.org/Graphics/SVG/1.1/DTD/svg11.dtd">
<!-- Generated by graphviz version 8.0.5 (20230430.1635)
 -->
<!-- Pages: 1 -->
<svg width="729pt" height="692pt"
 viewBox="0.00 0.00 729.26 692.00" xmlns="http://www.w3.org/2000/svg" xmlns:xlink="http://www.w3.org/1999/xlink">
<g id="graph0" class="graph" transform="scale(1 1) rotate(0) translate(4 688)">
<polygon fill="white" stroke="none" points="-4,4 -4,-688 725.26,-688 725.26,4 -4,4"/>
<!-- A -->
<g id="node1" class="node">
<title>A</title>
<ellipse fill="none" stroke="black" cx="408.24" cy="-666" rx="50.33" ry="18"/>
<text text-anchor="middle" x="408.24" y="-660.95" font-family="Times,serif" font-size="14.00">Input Data</text>
</g>
<!-- B1 -->
<g id="node2" class="node">
<title>B1</title>
<ellipse fill="none" stroke="black" cx="408.24" cy="-594" rx="51.35" ry="18"/>
<text text-anchor="middle" x="408.24" y="-588.95" font-family="Times,serif" font-size="14.00">Find SRRs</text>
</g>
<!-- A&#45;&gt;B1 -->
<g id="edge1" class="edge">
<title>A&#45;&gt;B1</title>
<path fill="none" stroke="black" d="M408.24,-647.7C408.24,-640.24 408.24,-631.32 408.24,-622.97"/>
<polygon fill="black" stroke="black" points="411.74,-623.1 408.24,-613.1 404.74,-623.1 411.74,-623.1"/>
</g>
<!-- B2 -->
<g id="node3" class="node">
<title>B2</title>
<ellipse fill="none" stroke="black" cx="408.24" cy="-522" rx="121.47" ry="18"/>
<text text-anchor="middle" x="408.24" y="-516.95" font-family="Times,serif" font-size="14.00">Download FastQ Files (aria2)</text>
</g>
<!-- B1&#45;&gt;B2 -->
<g id="edge2" class="edge">
<title>B1&#45;&gt;B2</title>
<path fill="none" stroke="black" d="M408.24,-575.7C408.24,-568.24 408.24,-559.32 408.24,-550.97"/>
<polygon fill="black" stroke="black" points="411.74,-551.1 408.24,-541.1 404.74,-551.1 411.74,-551.1"/>
</g>
<!-- B3 -->
<g id="node4" class="node">
<title>B3</title>
<ellipse fill="none" stroke="black" cx="263.24" cy="-450" rx="263.24" ry="18"/>
<text text-anchor="middle" x="263.24" y="-444.95" font-family="Times,serif" font-size="14.00">Fallback: Download FastQ Files (prefetch &#45;&gt; fasterq&#45;dump &#45;&gt; pigz)</text>
</g>
<!-- B2&#45;&gt;B3 -->
<g id="edge3" class="edge">
<title>B2&#45;&gt;B3</title>
<path fill="none" stroke="black" d="M373.88,-504.41C354.43,-495.02 329.86,-483.16 308.82,-473.01"/>
<polygon fill="black" stroke="black" points="310.65,-469.52 300.12,-468.32 307.61,-475.82 310.65,-469.52"/>
</g>
<!-- C -->
<g id="node5" class="node">
<title>C</title>
<ellipse fill="none" stroke="black" cx="408.24" cy="-378" rx="168.04" ry="18"/>
<text text-anchor="middle" x="408.24" y="-372.95" font-family="Times,serif" font-size="14.00">Quality Control and Preprocessing (Fastp)</text>
</g>
<!-- B2&#45;&gt;C -->
<g id="edge4" class="edge">
<title>B2&#45;&gt;C</title>
<path fill="none" stroke="black" d="M480.15,-507.14C501.48,-499.31 522.52,-487.09 535.24,-468 544.11,-454.68 544.11,-445.32 535.24,-432 525.27,-417.04 510.2,-406.3 493.87,-398.58"/>
<polygon fill="black" stroke="black" points="495.72,-395.13 485.15,-394.38 492.94,-401.56 495.72,-395.13"/>
</g>
<!-- B3&#45;&gt;C -->
<g id="edge5" class="edge">
<title>B3&#45;&gt;C</title>
<path fill="none" stroke="black" d="M299.08,-431.7C318.47,-422.34 342.6,-410.69 363.24,-400.72"/>
<polygon fill="black" stroke="black" points="364.58,-403.48 372.06,-395.98 361.53,-397.18 364.58,-403.48"/>
</g>
<!-- D -->
<g id="node6" class="node">
<title>D</title>
<ellipse fill="none" stroke="black" cx="408.24" cy="-306" rx="269.38" ry="18"/>
<text text-anchor="middle" x="408.24" y="-300.95" font-family="Times,serif" font-size="14.00">Download Reference Genome (Biopython Entrez and SeqIO, pysam)</text>
</g>
<!-- C&#45;&gt;D -->
<g id="edge6" class="edge">
<title>C&#45;&gt;D</title>
<path fill="none" stroke="black" d="M408.24,-359.7C408.24,-352.24 408.24,-343.32 408.24,-334.97"/>
<polygon fill="black" stroke="black" points="411.74,-335.1 408.24,-325.1 404.74,-335.1 411.74,-335.1"/>
</g>
<!-- E -->
<g id="node7" class="node">
<title>E</title>
<ellipse fill="none" stroke="black" cx="408.24" cy="-234" rx="90.76" ry="18"/>
<text text-anchor="middle" x="408.24" y="-228.95" font-family="Times,serif" font-size="14.00">Alignment (Bowtie2)</text>
</g>
<!-- D&#45;&gt;E -->
<g id="edge7" class="edge">
<title>D&#45;&gt;E</title>
<path fill="none" stroke="black" d="M408.24,-287.7C408.24,-280.24 408.24,-271.32 408.24,-262.97"/>
<polygon fill="black" stroke="black" points="411.74,-263.1 408.24,-253.1 404.74,-263.1 411.74,-263.1"/>
</g>
<!-- F -->
<g id="node8" class="node">
<title>F</title>
<ellipse fill="none" stroke="black" cx="408.24" cy="-162" rx="113.28" ry="18"/>
<text text-anchor="middle" x="408.24" y="-156.95" font-family="Times,serif" font-size="14.00">Post&#45;Processing (Samtools)</text>
</g>
<!-- E&#45;&gt;F -->
<g id="edge8" class="edge">
<title>E&#45;&gt;F</title>
<path fill="none" stroke="black" d="M408.24,-215.7C408.24,-208.24 408.24,-199.32 408.24,-190.97"/>
<polygon fill="black" stroke="black" points="411.74,-191.1 408.24,-181.1 404.74,-191.1 411.74,-191.1"/>
</g>
<!-- G -->
<g id="node9" class="node">
<title>G</title>
<ellipse fill="none" stroke="black" cx="262.24" cy="-90" rx="107.14" ry="18"/>
<text text-anchor="middle" x="262.24" y="-84.95" font-family="Times,serif" font-size="14.00">Variant Calling (Bcftools)</text>
</g>
<!-- F&#45;&gt;G -->
<g id="edge9" class="edge">
<title>F&#45;&gt;G</title>
<path fill="none" stroke="black" d="M373.64,-144.41C353.55,-134.78 328.03,-122.54 306.49,-112.22"/>
<polygon fill="black" stroke="black" points="308.12,-108.64 297.59,-107.47 305.1,-114.95 308.12,-108.64"/>
</g>
<!-- H -->
<g id="node10" class="node">
<title>H</title>
<ellipse fill="none" stroke="black" cx="554.24" cy="-90" rx="167.02" ry="18"/>
<text text-anchor="middle" x="554.24" y="-84.95" font-family="Times,serif" font-size="14.00">Quality Control of Alignment (Qualimap)</text>
</g>
<!-- F&#45;&gt;H -->
<g id="edge10" class="edge">
<title>F&#45;&gt;H</title>
<path fill="none" stroke="black" d="M442.84,-144.41C462.64,-134.92 487.71,-122.9 509.05,-112.67"/>
<polygon fill="black" stroke="black" points="510.37,-115.44 517.87,-107.96 507.34,-109.12 510.37,-115.44"/>
</g>
<!-- I -->
<g id="node11" class="node">
<title>I</title>
<ellipse fill="none" stroke="black" cx="262.24" cy="-18" rx="152.69" ry="18"/>
<text text-anchor="middle" x="262.24" y="-12.95" font-family="Times,serif" font-size="14.00">Variant Filtering (Bcftools) [Optional]</text>
</g>
<!-- G&#45;&gt;I -->
<g id="edge11" class="edge">
<title>G&#45;&gt;I</title>
<path fill="none" stroke="black" d="M262.24,-71.7C262.24,-64.24 262.24,-55.32 262.24,-46.97"/>
<polygon fill="black" stroke="black" points="265.74,-47.1 262.24,-37.1 258.74,-47.1 265.74,-47.1"/>
</g>
</g>
</svg>
